<svg width="134" height="43" viewBox="0 0 134 43" fill="none" xmlns="http://www.w3.org/2000/svg">
<rect width="134" height="43" rx="2" fill="#676767" fill-opacity="0.58"/>
<path d="M11.908 32.14L13.636 28.126L10.144 20.656H10.972L14.05 27.19L16.732 20.656H17.56L12.736 32.14H11.908ZM24.1432 20.656V28H23.4232V21.34H20.0392V25.588C20.0392 26.392 19.8952 26.986 19.6072 27.37C19.2832 27.814 18.8152 28.036 18.2032 28.036C18.1312 28.036 18.0112 28.024 17.8432 28V27.316C17.9632 27.34 18.0532 27.352 18.1132 27.352C18.5212 27.352 18.8392 27.19 19.0672 26.866C19.2352 26.602 19.3192 26.176 19.3192 25.588V20.656H24.1432ZM26.7656 27.946C26.6456 27.814 26.5856 27.652 26.5856 27.46C26.5856 27.268 26.6456 27.112 26.7656 26.992C26.8976 26.86 27.0596 26.794 27.2516 26.794C27.4436 26.794 27.5996 26.86 27.7196 26.992C27.8516 27.112 27.9176 27.268 27.9176 27.46C27.9176 27.652 27.8516 27.814 27.7196 27.946C27.5996 28.066 27.4436 28.126 27.2516 28.126C27.0596 28.126 26.8976 28.066 26.7656 27.946ZM40.5454 16.714H37.4314V28H36.6394V16.714H33.5254V15.994H40.5454V16.714ZM41.0206 20.656H43.4146C44.0986 20.656 44.6206 20.8 44.9806 21.088C45.4126 21.436 45.6286 21.904 45.6286 22.492C45.6286 23.164 45.3586 23.674 44.8186 24.022C45.1546 24.07 45.4546 24.208 45.7186 24.436C46.1386 24.808 46.3486 25.3 46.3486 25.912C46.3486 26.596 46.1026 27.124 45.6106 27.496C45.1786 27.832 44.5786 28 43.8106 28H41.0206V20.656ZM41.7406 23.86H43.4146C43.8586 23.86 44.2066 23.758 44.4586 23.554C44.7586 23.314 44.9086 22.99 44.9086 22.582C44.9086 22.186 44.7586 21.868 44.4586 21.628C44.2186 21.436 43.8706 21.34 43.4146 21.34H41.7406V23.86ZM41.7406 27.316H43.8106C44.3626 27.316 44.7826 27.208 45.0706 26.992C45.4186 26.728 45.5926 26.362 45.5926 25.894C45.5926 25.462 45.4306 25.12 45.1066 24.868C44.8186 24.652 44.3866 24.544 43.8106 24.544H41.7406V27.316ZM55.0437 24.418H48.7617C48.7617 25.33 49.0437 26.074 49.6077 26.65C50.1837 27.226 50.8737 27.514 51.6777 27.514C52.2537 27.514 52.7637 27.364 53.2077 27.064C53.6517 26.752 53.9937 26.344 54.2337 25.84L54.8457 26.2C54.5697 26.728 54.1677 27.196 53.6397 27.604C53.1117 28 52.4397 28.198 51.6237 28.198C50.5077 28.198 49.6257 27.838 48.9777 27.118C48.3297 26.386 48.0057 25.468 48.0057 24.364C48.0057 23.152 48.3537 22.204 49.0497 21.52C49.7577 20.836 50.5977 20.494 51.5697 20.494C52.5657 20.494 53.3937 20.86 54.0537 21.592C54.7137 22.324 55.0437 23.266 55.0437 24.418ZM48.8157 23.734H54.2877C54.1917 22.99 53.8917 22.378 53.3877 21.898C52.8957 21.418 52.2897 21.178 51.5697 21.178C50.8377 21.178 50.2197 21.424 49.7157 21.916C49.2117 22.396 48.9117 23.002 48.8157 23.734ZM57.8949 26.686V32.14H57.1749V20.656H57.8949V21.934C58.6029 20.974 59.5629 20.494 60.7749 20.494C61.8549 20.494 62.7189 20.854 63.3669 21.574C64.0149 22.282 64.3389 23.182 64.3389 24.274C64.3389 25.39 64.0089 26.326 63.3489 27.082C62.7009 27.826 61.8309 28.198 60.7389 28.198C60.1869 28.198 59.6889 28.09 59.2449 27.874C58.8009 27.646 58.4949 27.442 58.3269 27.262C58.1589 27.07 58.0149 26.878 57.8949 26.686ZM58.6149 26.596C59.1189 27.208 59.8209 27.514 60.7209 27.514C61.6209 27.514 62.3229 27.208 62.8269 26.596C63.3309 25.984 63.5829 25.21 63.5829 24.274C63.5829 23.302 63.3069 22.546 62.7549 22.006C62.2029 21.454 61.5309 21.178 60.7389 21.178C59.9589 21.178 59.2809 21.448 58.7049 21.988C58.1409 22.528 57.8589 23.278 57.8589 24.238C57.8589 25.186 58.1109 25.972 58.6149 26.596ZM72.3422 21.43V22.384C71.6462 21.58 70.8002 21.178 69.8042 21.178C68.9162 21.178 68.1842 21.484 67.6082 22.096C67.0322 22.696 66.7442 23.452 66.7442 24.364C66.7442 25.348 67.0502 26.122 67.6622 26.686C68.2742 27.238 68.9762 27.514 69.7682 27.514C70.7402 27.514 71.6282 27.076 72.4322 26.2V27.172C71.6642 27.856 70.7702 28.198 69.7502 28.198C68.6462 28.198 67.7402 27.838 67.0322 27.118C66.3362 26.386 65.9882 25.474 65.9882 24.382C65.9882 23.266 66.3362 22.342 67.0322 21.61C67.7282 20.866 68.6522 20.494 69.8042 20.494C70.7522 20.494 71.5982 20.806 72.3422 21.43ZM74.419 20.656H75.139V24.148L78.847 20.656H79.819L76.075 24.148L80.107 28H79.063L75.535 24.634L75.139 25.012V28H74.419V20.656ZM87.145 21.934V20.656H87.865V28H87.145V26.686C86.485 27.694 85.531 28.198 84.283 28.198C83.287 28.198 82.441 27.844 81.745 27.136C81.049 26.428 80.701 25.492 80.701 24.328C80.701 23.188 81.031 22.264 81.691 21.556C82.351 20.848 83.215 20.494 84.283 20.494C85.507 20.494 86.461 20.974 87.145 21.934ZM84.319 21.178C83.539 21.178 82.867 21.46 82.303 22.024C81.739 22.576 81.457 23.326 81.457 24.274C81.457 25.15 81.715 25.912 82.231 26.56C82.747 27.196 83.449 27.514 84.337 27.514C85.213 27.514 85.903 27.202 86.407 26.578C86.923 25.942 87.181 25.174 87.181 24.274C87.181 23.278 86.887 22.516 86.299 21.988C85.711 21.448 85.051 21.178 84.319 21.178ZM89.6583 28L91.9983 24.796C91.4343 24.772 90.9543 24.592 90.5583 24.256C90.1503 23.896 89.9463 23.41 89.9463 22.798C89.9463 22.09 90.1683 21.55 90.6123 21.178C91.0083 20.83 91.5903 20.656 92.3583 20.656H94.8063V28H94.0863V24.832H92.8263L90.5223 28H89.6583ZM94.0863 24.148V21.34H92.3583C91.8543 21.34 91.4643 21.448 91.1883 21.664C90.8643 21.94 90.7023 22.312 90.7023 22.78C90.7023 23.236 90.8583 23.584 91.1703 23.824C91.4583 24.04 91.8543 24.148 92.3583 24.148H94.0863ZM96.7817 30.466L97.8617 26.83L98.5817 27.046L97.2497 30.646L96.7817 30.466ZM112.873 28H105.475L110.083 22.924C110.719 22.204 111.157 21.664 111.397 21.304C111.865 20.584 112.099 19.9 112.099 19.252C112.099 18.484 111.835 17.842 111.307 17.326C110.791 16.81 110.125 16.552 109.309 16.552C108.445 16.552 107.755 16.846 107.239 17.434C106.771 17.95 106.537 18.604 106.537 19.396H105.745C105.745 18.376 106.063 17.536 106.699 16.876C107.371 16.18 108.259 15.832 109.363 15.832C110.395 15.832 111.247 16.162 111.919 16.822C112.591 17.47 112.927 18.28 112.927 19.252C112.927 20.104 112.639 20.926 112.063 21.718C111.787 22.102 111.433 22.534 111.001 23.014L107.149 27.28H112.873V28ZM120.829 15.598V24.994H122.503V25.714H120.829V28H120.037V25.714H113.575L120.829 15.598ZM114.979 24.994H120.037V17.938L114.979 24.994Z" fill="white"/>
</svg>
